<?xml version="1.0" standalone="no"?>
<!DOCTYPE svg PUBLIC "-//W3C//DTD SVG 20010904//EN"
 "http://www.w3.org/TR/2001/REC-SVG-20010904/DTD/svg10.dtd">
<svg version="1.0" xmlns="http://www.w3.org/2000/svg"
 width="367.000000pt" height="367.000000pt" viewBox="0 0 367.000000 367.000000"
 preserveAspectRatio="xMidYMid meet">
<metadata>
Created by potrace 1.11, written by Peter Selinger 2001-2013
</metadata>
<g transform="translate(0.000000,367.000000) scale(0.100000,-0.100000)"
fill="#000000" stroke="none">
<path d="M1122 3645 c-35 -16 -60 -37 -79 -66 l-28 -43 -3 -1665 c-2 -1163 0
-1677 8 -1703 14 -50 56 -97 105 -119 51 -24 257 -27 308 -5 43 17 79 52 103
96 17 33 18 75 18 735 l1 700 278 0 277 0 0 -340 c0 -326 1 -342 21 -379 46
-87 92 -106 249 -106 130 0 170 11 217 62 56 59 53 -14 53 1401 l0 1304 -23
42 c-12 24 -42 57 -66 75 -42 30 -45 31 -170 33 -115 3 -131 1 -171 -20 -24
-12 -58 -39 -74 -60 l-31 -39 -5 -716 -5 -717 -270 1 c-148 1 -272 2 -275 3
-3 0 -6 315 -6 699 0 767 3 734 -61 793 -49 46 -72 52 -200 55 -109 2 -126 0
-171 -21z"/>
<path d="M2247 599 c-45 -13 -98 -58 -118 -103 -15 -34 -19 -66 -19 -194 0
-172 11 -210 72 -255 55 -39 78 -44 203 -42 127 2 154 8 196 46 59 55 64 71
67 244 2 151 1 162 -21 205 -16 30 -39 55 -71 74 -44 28 -54 30 -164 32 -64 1
-130 -2 -145 -7z"/>
</g>
</svg>
