<svg width="304" height="61" viewBox="0 0 304 61" fill="none" xmlns="http://www.w3.org/2000/svg">
<path d="M15.2051 40.8945C15.2051 41.8828 14.9863 42.668 14.5488 43.25C14.1113 43.8281 13.5254 44.1172 12.791 44.1172C11.9238 44.1172 11.2598 43.8125 10.7988 43.2031V46.4375H10.1016V37.6602H10.752L10.7871 38.5566C11.2441 37.8809 11.9062 37.543 12.7734 37.543C13.5312 37.543 14.125 37.8301 14.5547 38.4043C14.9883 38.9785 15.2051 39.7754 15.2051 40.7949V40.8945ZM14.502 40.7715C14.502 39.9629 14.3359 39.3242 14.0039 38.8555C13.6719 38.3867 13.209 38.1523 12.6152 38.1523C12.1855 38.1523 11.8164 38.2559 11.5078 38.4629C11.1992 38.6699 10.9629 38.9707 10.7988 39.3652V42.4062C10.9668 42.7695 11.207 43.0469 11.5195 43.2383C11.832 43.4297 12.2012 43.5254 12.627 43.5254C13.2168 43.5254 13.6758 43.291 14.0039 42.8223C14.3359 42.3496 14.502 41.666 14.502 40.7715ZM19.2188 44.1172C18.6797 44.1172 18.1914 43.9844 17.7539 43.7188C17.3203 43.4531 16.9824 43.084 16.7402 42.6113C16.498 42.1348 16.377 41.6016 16.377 41.0117V40.7598C16.377 40.1504 16.4941 39.6016 16.7285 39.1133C16.9668 38.625 17.2969 38.2422 17.7188 37.9648C18.1406 37.6836 18.5977 37.543 19.0898 37.543C19.8594 37.543 20.4688 37.8066 20.918 38.334C21.3711 38.8574 21.5977 39.5742 21.5977 40.4844V40.877H17.0742V41.0117C17.0742 41.7305 17.2793 42.3301 17.6895 42.8105C18.1035 43.2871 18.623 43.5254 19.248 43.5254C19.623 43.5254 19.9531 43.457 20.2383 43.3203C20.5273 43.1836 20.7891 42.9648 21.0234 42.6641L21.4629 42.998C20.9473 43.7441 20.1992 44.1172 19.2188 44.1172ZM19.0898 38.1406C18.5625 38.1406 18.1172 38.334 17.7539 38.7207C17.3945 39.1074 17.1758 39.627 17.0977 40.2793H20.9004V40.2031C20.8809 39.5938 20.707 39.0977 20.3789 38.7148C20.0508 38.332 19.6211 38.1406 19.0898 38.1406ZM22.6816 40.7715C22.6816 39.7871 22.9004 39.0039 23.3379 38.4219C23.7793 37.8359 24.377 37.543 25.1309 37.543C25.9863 37.543 26.6387 37.8809 27.0879 38.5566V35H27.7852V44H27.1289L27.0996 43.1562C26.6504 43.7969 25.9902 44.1172 25.1191 44.1172C24.3887 44.1172 23.7988 43.8242 23.3496 43.2383C22.9043 42.6484 22.6816 41.8535 22.6816 40.8535V40.7715ZM23.3906 40.8945C23.3906 41.7031 23.5527 42.3418 23.877 42.8105C24.2012 43.2754 24.6582 43.5078 25.248 43.5078C26.1113 43.5078 26.7246 43.127 27.0879 42.3652V39.3887C26.7246 38.5645 26.1152 38.1523 25.2598 38.1523C24.6699 38.1523 24.2109 38.3848 23.8828 38.8496C23.5547 39.3105 23.3906 39.9922 23.3906 40.8945ZM30.416 44H29.7129V37.6602H30.416V44ZM29.5898 35.8262C29.5898 35.6934 29.6328 35.582 29.7188 35.4922C29.8047 35.3984 29.9219 35.3516 30.0703 35.3516C30.2188 35.3516 30.3359 35.3984 30.4219 35.4922C30.5117 35.582 30.5566 35.6934 30.5566 35.8262C30.5566 35.959 30.5117 36.0703 30.4219 36.1602C30.3359 36.25 30.2188 36.2949 30.0703 36.2949C29.9219 36.2949 29.8047 36.25 29.7188 36.1602C29.6328 36.0703 29.5898 35.959 29.5898 35.8262ZM32.0449 40.7715C32.0449 39.7871 32.2637 39.0039 32.7012 38.4219C33.1426 37.8359 33.7402 37.543 34.4941 37.543C35.3496 37.543 36.002 37.8809 36.4512 38.5566V35H37.1484V44H36.4922L36.4629 43.1562C36.0137 43.7969 35.3535 44.1172 34.4824 44.1172C33.752 44.1172 33.1621 43.8242 32.7129 43.2383C32.2676 42.6484 32.0449 41.8535 32.0449 40.8535V40.7715ZM32.7539 40.8945C32.7539 41.7031 32.916 42.3418 33.2402 42.8105C33.5645 43.2754 34.0215 43.5078 34.6113 43.5078C35.4746 43.5078 36.0879 43.127 36.4512 42.3652V39.3887C36.0879 38.5645 35.4785 38.1523 34.623 38.1523C34.0332 38.1523 33.5742 38.3848 33.2461 38.8496C32.918 39.3105 32.7539 39.9922 32.7539 40.8945ZM38.6074 40.7363C38.6074 40.127 38.7246 39.5781 38.959 39.0898C39.1973 38.6016 39.5312 38.2227 39.9609 37.9531C40.3945 37.6797 40.8848 37.543 41.4316 37.543C42.2754 37.543 42.959 37.8398 43.4824 38.4336C44.0059 39.0234 44.2676 39.8066 44.2676 40.7832V40.9297C44.2676 41.543 44.1484 42.0957 43.9102 42.5879C43.6758 43.0762 43.3438 43.4531 42.9141 43.7188C42.4844 43.9844 41.9941 44.1172 41.4434 44.1172C40.6035 44.1172 39.9199 43.8223 39.3926 43.2324C38.8691 42.6387 38.6074 41.8535 38.6074 40.877V40.7363ZM39.3105 40.9297C39.3105 41.6875 39.5059 42.3105 39.8965 42.7988C40.291 43.2832 40.8066 43.5254 41.4434 43.5254C42.0762 43.5254 42.5879 43.2832 42.9785 42.7988C43.373 42.3105 43.5703 41.668 43.5703 40.8711V40.7363C43.5703 40.252 43.4805 39.8086 43.3008 39.4062C43.1211 39.0039 42.8691 38.6934 42.5449 38.4746C42.2207 38.252 41.8496 38.1406 41.4316 38.1406C40.8066 38.1406 40.2969 38.3867 39.9023 38.8789C39.5078 39.3672 39.3105 40.0078 39.3105 40.8008V40.9297ZM7.03711 52.2578C6.88867 52.2305 6.73047 52.2168 6.5625 52.2168C6.125 52.2168 5.75391 52.3398 5.44922 52.5859C5.14844 52.8281 4.93359 53.1816 4.80469 53.6465V58H4.10742V51.6602H4.79297L4.80469 52.668C5.17578 51.918 5.77148 51.543 6.5918 51.543C6.78711 51.543 6.94141 51.5684 7.05469 51.6191L7.03711 52.2578ZM10.4883 58.1172C9.94922 58.1172 9.46094 57.9844 9.02344 57.7188C8.58984 57.4531 8.25195 57.084 8.00977 56.6113C7.76758 56.1348 7.64648 55.6016 7.64648 55.0117V54.7598C7.64648 54.1504 7.76367 53.6016 7.99805 53.1133C8.23633 52.625 8.56641 52.2422 8.98828 51.9648C9.41016 51.6836 9.86719 51.543 10.3594 51.543C11.1289 51.543 11.7383 51.8066 12.1875 52.334C12.6406 52.8574 12.8672 53.5742 12.8672 54.4844V54.877H8.34375V55.0117C8.34375 55.7305 8.54883 56.3301 8.95898 56.8105C9.37305 57.2871 9.89258 57.5254 10.5176 57.5254C10.8926 57.5254 11.2227 57.457 11.5078 57.3203C11.7969 57.1836 12.0586 56.9648 12.293 56.6641L12.7324 56.998C12.2168 57.7441 11.4688 58.1172 10.4883 58.1172ZM10.3594 52.1406C9.83203 52.1406 9.38672 52.334 9.02344 52.7207C8.66406 53.1074 8.44531 53.627 8.36719 54.2793H12.1699V54.2031C12.1504 53.5938 11.9766 53.0977 11.6484 52.7148C11.3203 52.332 10.8906 52.1406 10.3594 52.1406ZM18.2344 58C18.1641 57.8008 18.1191 57.5059 18.0996 57.1152C17.8535 57.4355 17.5391 57.6836 17.1562 57.8594C16.7773 58.0312 16.375 58.1172 15.9492 58.1172C15.3398 58.1172 14.8457 57.9473 14.4668 57.6074C14.0918 57.2676 13.9043 56.8379 13.9043 56.3184C13.9043 55.7012 14.1602 55.2129 14.6719 54.8535C15.1875 54.4941 15.9043 54.3145 16.8223 54.3145H18.0938V53.5938C18.0938 53.1406 17.9531 52.7852 17.6719 52.5273C17.3945 52.2656 16.9883 52.1348 16.4531 52.1348C15.9648 52.1348 15.5605 52.2598 15.2402 52.5098C14.9199 52.7598 14.7598 53.0605 14.7598 53.4121L14.0566 53.4062C14.0566 52.9023 14.291 52.4668 14.7598 52.0996C15.2285 51.7285 15.8047 51.543 16.4883 51.543C17.1953 51.543 17.752 51.7207 18.1582 52.0762C18.5684 52.4277 18.7793 52.9199 18.791 53.5527V56.5527C18.791 57.166 18.8555 57.625 18.9844 57.9297V58H18.2344ZM16.0312 57.4961C16.5 57.4961 16.918 57.3828 17.2852 57.1562C17.6562 56.9297 17.9258 56.627 18.0938 56.248V54.8535H16.8398C16.1406 54.8613 15.5938 54.9902 15.1992 55.2402C14.8047 55.4863 14.6074 55.8262 14.6074 56.2598C14.6074 56.6152 14.7383 56.9102 15 57.1445C15.2656 57.3789 15.6094 57.4961 16.0312 57.4961ZM21.4512 58H20.748V49H21.4512V58ZM24.1465 58H23.4434V51.6602H24.1465V58ZM23.3203 49.8262C23.3203 49.6934 23.3633 49.582 23.4492 49.4922C23.5352 49.3984 23.6523 49.3516 23.8008 49.3516C23.9492 49.3516 24.0664 49.3984 24.1523 49.4922C24.2422 49.582 24.2871 49.6934 24.2871 49.8262C24.2871 49.959 24.2422 50.0703 24.1523 50.1602C24.0664 50.25 23.9492 50.2949 23.8008 50.2949C23.6523 50.2949 23.5352 50.25 23.4492 50.1602C23.3633 50.0703 23.3203 49.959 23.3203 49.8262ZM26.5195 57.4082H30.6387V58H25.6523V57.4844L29.4961 52.2637H25.7695V51.6602H30.3809V52.1816L26.5195 57.4082ZM35.8945 58C35.8242 57.8008 35.7793 57.5059 35.7598 57.1152C35.5137 57.4355 35.1992 57.6836 34.8164 57.8594C34.4375 58.0312 34.0352 58.1172 33.6094 58.1172C33 58.1172 32.5059 57.9473 32.127 57.6074C31.752 57.2676 31.5645 56.8379 31.5645 56.3184C31.5645 55.7012 31.8203 55.2129 32.332 54.8535C32.8477 54.4941 33.5645 54.3145 34.4824 54.3145H35.7539V53.5938C35.7539 53.1406 35.6133 52.7852 35.332 52.5273C35.0547 52.2656 34.6484 52.1348 34.1133 52.1348C33.625 52.1348 33.2207 52.2598 32.9004 52.5098C32.5801 52.7598 32.4199 53.0605 32.4199 53.4121L31.7168 53.4062C31.7168 52.9023 31.9512 52.4668 32.4199 52.0996C32.8887 51.7285 33.4648 51.543 34.1484 51.543C34.8555 51.543 35.4121 51.7207 35.8184 52.0762C36.2285 52.4277 36.4395 52.9199 36.4512 53.5527V56.5527C36.4512 57.166 36.5156 57.625 36.6445 57.9297V58H35.8945ZM33.6914 57.4961C34.1602 57.4961 34.5781 57.3828 34.9453 57.1562C35.3164 56.9297 35.5859 56.627 35.7539 56.248V54.8535H34.5C33.8008 54.8613 33.2539 54.9902 32.8594 55.2402C32.4648 55.4863 32.2676 55.8262 32.2676 56.2598C32.2676 56.6152 32.3984 56.9102 32.6602 57.1445C32.9258 57.3789 33.2695 57.4961 33.6914 57.4961ZM38.0449 54.7715C38.0449 53.7871 38.2637 53.0039 38.7012 52.4219C39.1426 51.8359 39.7402 51.543 40.4941 51.543C41.3496 51.543 42.002 51.8809 42.4512 52.5566V49H43.1484V58H42.4922L42.4629 57.1562C42.0137 57.7969 41.3535 58.1172 40.4824 58.1172C39.752 58.1172 39.1621 57.8242 38.7129 57.2383C38.2676 56.6484 38.0449 55.8535 38.0449 54.8535V54.7715ZM38.7539 54.8945C38.7539 55.7031 38.916 56.3418 39.2402 56.8105C39.5645 57.2754 40.0215 57.5078 40.6113 57.5078C41.4746 57.5078 42.0879 57.127 42.4512 56.3652V53.3887C42.0879 52.5645 41.4785 52.1523 40.623 52.1523C40.0332 52.1523 39.5742 52.3848 39.2461 52.8496C38.918 53.3105 38.7539 53.9922 38.7539 54.8945ZM44.6074 54.7363C44.6074 54.127 44.7246 53.5781 44.959 53.0898C45.1973 52.6016 45.5312 52.2227 45.9609 51.9531C46.3945 51.6797 46.8848 51.543 47.4316 51.543C48.2754 51.543 48.959 51.8398 49.4824 52.4336C50.0059 53.0234 50.2676 53.8066 50.2676 54.7832V54.9297C50.2676 55.543 50.1484 56.0957 49.9102 56.5879C49.6758 57.0762 49.3438 57.4531 48.9141 57.7188C48.4844 57.9844 47.9941 58.1172 47.4434 58.1172C46.6035 58.1172 45.9199 57.8223 45.3926 57.2324C44.8691 56.6387 44.6074 55.8535 44.6074 54.877V54.7363ZM45.3105 54.9297C45.3105 55.6875 45.5059 56.3105 45.8965 56.7988C46.291 57.2832 46.8066 57.5254 47.4434 57.5254C48.0762 57.5254 48.5879 57.2832 48.9785 56.7988C49.373 56.3105 49.5703 55.668 49.5703 54.8711V54.7363C49.5703 54.252 49.4805 53.8086 49.3008 53.4062C49.1211 53.0039 48.8691 52.6934 48.5449 52.4746C48.2207 52.252 47.8496 52.1406 47.4316 52.1406C46.8066 52.1406 46.2969 52.3867 45.9023 52.8789C45.5078 53.3672 45.3105 54.0078 45.3105 54.8008V54.9297Z" fill="black"/>
<path d="M84.9707 40.8945C84.9707 41.8828 84.752 42.668 84.3145 43.25C83.877 43.8281 83.291 44.1172 82.5566 44.1172C81.6895 44.1172 81.0254 43.8125 80.5645 43.2031V46.4375H79.8672V37.6602H80.5176L80.5527 38.5566C81.0098 37.8809 81.6719 37.543 82.5391 37.543C83.2969 37.543 83.8906 37.8301 84.3203 38.4043C84.7539 38.9785 84.9707 39.7754 84.9707 40.7949V40.8945ZM84.2676 40.7715C84.2676 39.9629 84.1016 39.3242 83.7695 38.8555C83.4375 38.3867 82.9746 38.1523 82.3809 38.1523C81.9512 38.1523 81.582 38.2559 81.2734 38.4629C80.9648 38.6699 80.7285 38.9707 80.5645 39.3652V42.4062C80.7324 42.7695 80.9727 43.0469 81.2852 43.2383C81.5977 43.4297 81.9668 43.5254 82.3926 43.5254C82.9824 43.5254 83.4414 43.291 83.7695 42.8223C84.1016 42.3496 84.2676 41.666 84.2676 40.7715ZM90.5312 44C90.4609 43.8008 90.416 43.5059 90.3965 43.1152C90.1504 43.4355 89.8359 43.6836 89.4531 43.8594C89.0742 44.0312 88.6719 44.1172 88.2461 44.1172C87.6367 44.1172 87.1426 43.9473 86.7637 43.6074C86.3887 43.2676 86.2012 42.8379 86.2012 42.3184C86.2012 41.7012 86.457 41.2129 86.9688 40.8535C87.4844 40.4941 88.2012 40.3145 89.1191 40.3145H90.3906V39.5938C90.3906 39.1406 90.25 38.7852 89.9688 38.5273C89.6914 38.2656 89.2852 38.1348 88.75 38.1348C88.2617 38.1348 87.8574 38.2598 87.5371 38.5098C87.2168 38.7598 87.0566 39.0605 87.0566 39.4121L86.3535 39.4062C86.3535 38.9023 86.5879 38.4668 87.0566 38.0996C87.5254 37.7285 88.1016 37.543 88.7852 37.543C89.4922 37.543 90.0488 37.7207 90.4551 38.0762C90.8652 38.4277 91.0762 38.9199 91.0879 39.5527V42.5527C91.0879 43.166 91.1523 43.625 91.2812 43.9297V44H90.5312ZM88.3281 43.4961C88.7969 43.4961 89.2148 43.3828 89.582 43.1562C89.9531 42.9297 90.2227 42.627 90.3906 42.248V40.8535H89.1367C88.4375 40.8613 87.8906 40.9902 87.4961 41.2402C87.1016 41.4863 86.9043 41.8262 86.9043 42.2598C86.9043 42.6152 87.0352 42.9102 87.2969 43.1445C87.5625 43.3789 87.9062 43.4961 88.3281 43.4961ZM92.6816 40.7715C92.6816 39.7793 92.9004 38.9941 93.3379 38.416C93.7793 37.834 94.377 37.543 95.1309 37.543C95.9941 37.543 96.6504 37.8867 97.0996 38.5742L97.1348 37.6602H97.791V43.8711C97.791 44.6875 97.5625 45.334 97.1055 45.8105C96.6484 46.2871 96.0293 46.5254 95.248 46.5254C94.8066 46.5254 94.3848 46.4258 93.9824 46.2266C93.584 46.0312 93.2695 45.7695 93.0391 45.4414L93.4316 45.0195C93.9277 45.6289 94.5176 45.9336 95.2012 45.9336C95.7871 45.9336 96.2441 45.7598 96.5723 45.4121C96.9004 45.0684 97.0703 44.5898 97.082 43.9766V43.1797C96.6328 43.8047 95.9785 44.1172 95.1191 44.1172C94.3848 44.1172 93.7949 43.8242 93.3496 43.2383C92.9043 42.6523 92.6816 41.8613 92.6816 40.8652V40.7715ZM93.3906 40.8945C93.3906 41.7031 93.5527 42.3418 93.877 42.8105C94.2012 43.2754 94.6582 43.5078 95.248 43.5078C96.1113 43.5078 96.7227 43.1211 97.082 42.3477V39.4004C96.918 38.9941 96.6816 38.6855 96.373 38.4746C96.0645 38.2598 95.6934 38.1523 95.2598 38.1523C94.6699 38.1523 94.2109 38.3848 93.8828 38.8496C93.5547 39.3105 93.3906 39.9922 93.3906 40.8945ZM103.621 44C103.551 43.8008 103.506 43.5059 103.486 43.1152C103.24 43.4355 102.926 43.6836 102.543 43.8594C102.164 44.0312 101.762 44.1172 101.336 44.1172C100.727 44.1172 100.232 43.9473 99.8535 43.6074C99.4785 43.2676 99.291 42.8379 99.291 42.3184C99.291 41.7012 99.5469 41.2129 100.059 40.8535C100.574 40.4941 101.291 40.3145 102.209 40.3145H103.48V39.5938C103.48 39.1406 103.34 38.7852 103.059 38.5273C102.781 38.2656 102.375 38.1348 101.84 38.1348C101.352 38.1348 100.947 38.2598 100.627 38.5098C100.307 38.7598 100.146 39.0605 100.146 39.4121L99.4434 39.4062C99.4434 38.9023 99.6777 38.4668 100.146 38.0996C100.615 37.7285 101.191 37.543 101.875 37.543C102.582 37.543 103.139 37.7207 103.545 38.0762C103.955 38.4277 104.166 38.9199 104.178 39.5527V42.5527C104.178 43.166 104.242 43.625 104.371 43.9297V44H103.621ZM101.418 43.4961C101.887 43.4961 102.305 43.3828 102.672 43.1562C103.043 42.9297 103.312 42.627 103.48 42.248V40.8535H102.227C101.527 40.8613 100.98 40.9902 100.586 41.2402C100.191 41.4863 99.9941 41.8262 99.9941 42.2598C99.9941 42.6152 100.125 42.9102 100.387 43.1445C100.652 43.3789 100.996 43.4961 101.418 43.4961ZM106.691 37.6602L106.715 38.6914C106.949 38.3086 107.242 38.0215 107.594 37.8301C107.945 37.6387 108.336 37.543 108.766 37.543C109.766 37.543 110.4 37.9531 110.67 38.7734C110.896 38.3789 111.199 38.0762 111.578 37.8652C111.957 37.6504 112.375 37.543 112.832 37.543C114.191 37.543 114.885 38.2852 114.912 39.7695V44H114.209V39.8223C114.205 39.2559 114.082 38.8359 113.84 38.5625C113.602 38.2891 113.211 38.1523 112.668 38.1523C112.164 38.1602 111.738 38.3242 111.391 38.6445C111.043 38.9609 110.85 39.3477 110.811 39.8047V44H110.107V39.7695C110.104 39.2266 109.975 38.8223 109.721 38.5566C109.471 38.2871 109.084 38.1523 108.561 38.1523C108.119 38.1523 107.74 38.2793 107.424 38.5332C107.107 38.7832 106.873 39.1562 106.721 39.6523V44H106.018V37.6602H106.691ZM119.148 44.1172C118.609 44.1172 118.121 43.9844 117.684 43.7188C117.25 43.4531 116.912 43.084 116.67 42.6113C116.428 42.1348 116.307 41.6016 116.307 41.0117V40.7598C116.307 40.1504 116.424 39.6016 116.658 39.1133C116.896 38.625 117.227 38.2422 117.648 37.9648C118.07 37.6836 118.527 37.543 119.02 37.543C119.789 37.543 120.398 37.8066 120.848 38.334C121.301 38.8574 121.527 39.5742 121.527 40.4844V40.877H117.004V41.0117C117.004 41.7305 117.209 42.3301 117.619 42.8105C118.033 43.2871 118.553 43.5254 119.178 43.5254C119.553 43.5254 119.883 43.457 120.168 43.3203C120.457 43.1836 120.719 42.9648 120.953 42.6641L121.393 42.998C120.877 43.7441 120.129 44.1172 119.148 44.1172ZM119.02 38.1406C118.492 38.1406 118.047 38.334 117.684 38.7207C117.324 39.1074 117.105 39.627 117.027 40.2793H120.83V40.2031C120.811 39.5938 120.637 39.0977 120.309 38.7148C119.98 38.332 119.551 38.1406 119.02 38.1406ZM123.561 37.6602L123.584 38.7441C123.822 38.3535 124.119 38.0566 124.475 37.8535C124.83 37.6465 125.223 37.543 125.652 37.543C126.332 37.543 126.838 37.7344 127.17 38.1172C127.502 38.5 127.67 39.0742 127.674 39.8398V44H126.977V39.834C126.973 39.2676 126.852 38.8457 126.613 38.5684C126.379 38.291 126.002 38.1523 125.482 38.1523C125.049 38.1523 124.664 38.2891 124.328 38.5625C123.996 38.832 123.75 39.1973 123.59 39.6582V44H122.893V37.6602H123.561ZM130.58 36.0371V37.6602H131.893V38.2344H130.58V42.459C130.58 42.8105 130.643 43.0723 130.768 43.2441C130.896 43.416 131.109 43.502 131.406 43.502C131.523 43.502 131.713 43.4824 131.975 43.4434L132.004 44.0176C131.82 44.084 131.57 44.1172 131.254 44.1172C130.773 44.1172 130.424 43.9785 130.205 43.7012C129.986 43.4199 129.877 43.0078 129.877 42.4648V38.2344H128.711V37.6602H129.877V36.0371H130.58ZM132.842 40.7363C132.842 40.127 132.959 39.5781 133.193 39.0898C133.432 38.6016 133.766 38.2227 134.195 37.9531C134.629 37.6797 135.119 37.543 135.666 37.543C136.51 37.543 137.193 37.8398 137.717 38.4336C138.24 39.0234 138.502 39.8066 138.502 40.7832V40.9297C138.502 41.543 138.383 42.0957 138.145 42.5879C137.91 43.0762 137.578 43.4531 137.148 43.7188C136.719 43.9844 136.229 44.1172 135.678 44.1172C134.838 44.1172 134.154 43.8223 133.627 43.2324C133.104 42.6387 132.842 41.8535 132.842 40.877V40.7363ZM133.545 40.9297C133.545 41.6875 133.74 42.3105 134.131 42.7988C134.525 43.2832 135.041 43.5254 135.678 43.5254C136.311 43.5254 136.822 43.2832 137.213 42.7988C137.607 42.3105 137.805 41.668 137.805 40.8711V40.7363C137.805 40.252 137.715 39.8086 137.535 39.4062C137.355 39.0039 137.104 38.6934 136.779 38.4746C136.455 38.252 136.084 38.1406 135.666 38.1406C135.041 38.1406 134.531 38.3867 134.137 38.8789C133.742 39.3672 133.545 40.0078 133.545 40.8008V40.9297ZM89.3359 58C89.2656 57.8008 89.2207 57.5059 89.2012 57.1152C88.9551 57.4355 88.6406 57.6836 88.2578 57.8594C87.8789 58.0312 87.4766 58.1172 87.0508 58.1172C86.4414 58.1172 85.9473 57.9473 85.5684 57.6074C85.1934 57.2676 85.0059 56.8379 85.0059 56.3184C85.0059 55.7012 85.2617 55.2129 85.7734 54.8535C86.2891 54.4941 87.0059 54.3145 87.9238 54.3145H89.1953V53.5938C89.1953 53.1406 89.0547 52.7852 88.7734 52.5273C88.4961 52.2656 88.0898 52.1348 87.5547 52.1348C87.0664 52.1348 86.6621 52.2598 86.3418 52.5098C86.0215 52.7598 85.8613 53.0605 85.8613 53.4121L85.1582 53.4062C85.1582 52.9023 85.3926 52.4668 85.8613 52.0996C86.3301 51.7285 86.9062 51.543 87.5898 51.543C88.2969 51.543 88.8535 51.7207 89.2598 52.0762C89.6699 52.4277 89.8809 52.9199 89.8926 53.5527V56.5527C89.8926 57.166 89.957 57.625 90.0859 57.9297V58H89.3359ZM87.1328 57.4961C87.6016 57.4961 88.0195 57.3828 88.3867 57.1562C88.7578 56.9297 89.0273 56.627 89.1953 56.248V54.8535H87.9414C87.2422 54.8613 86.6953 54.9902 86.3008 55.2402C85.9062 55.4863 85.709 55.8262 85.709 56.2598C85.709 56.6152 85.8398 56.9102 86.1016 57.1445C86.3672 57.3789 86.7109 57.4961 87.1328 57.4961ZM96.8652 54.8945C96.8652 55.8828 96.6465 56.668 96.209 57.25C95.7715 57.8281 95.1855 58.1172 94.4512 58.1172C93.584 58.1172 92.9199 57.8125 92.459 57.2031V60.4375H91.7617V51.6602H92.4121L92.4473 52.5566C92.9043 51.8809 93.5664 51.543 94.4336 51.543C95.1914 51.543 95.7852 51.8301 96.2148 52.4043C96.6484 52.9785 96.8652 53.7754 96.8652 54.7949V54.8945ZM96.1621 54.7715C96.1621 53.9629 95.9961 53.3242 95.6641 52.8555C95.332 52.3867 94.8691 52.1523 94.2754 52.1523C93.8457 52.1523 93.4766 52.2559 93.168 52.4629C92.8594 52.6699 92.623 52.9707 92.459 53.3652V56.4062C92.627 56.7695 92.8672 57.0469 93.1797 57.2383C93.4922 57.4297 93.8613 57.5254 94.2871 57.5254C94.877 57.5254 95.3359 57.291 95.6641 56.8223C95.9961 56.3496 96.1621 55.666 96.1621 54.7715ZM101.354 52.2578C101.205 52.2305 101.047 52.2168 100.879 52.2168C100.441 52.2168 100.07 52.3398 99.7656 52.5859C99.4648 52.8281 99.25 53.1816 99.1211 53.6465V58H98.4238V51.6602H99.1094L99.1211 52.668C99.4922 51.918 100.088 51.543 100.908 51.543C101.104 51.543 101.258 51.5684 101.371 51.6191L101.354 52.2578ZM101.963 54.7363C101.963 54.127 102.08 53.5781 102.314 53.0898C102.553 52.6016 102.887 52.2227 103.316 51.9531C103.75 51.6797 104.24 51.543 104.787 51.543C105.631 51.543 106.314 51.8398 106.838 52.4336C107.361 53.0234 107.623 53.8066 107.623 54.7832V54.9297C107.623 55.543 107.504 56.0957 107.266 56.5879C107.031 57.0762 106.699 57.4531 106.27 57.7188C105.84 57.9844 105.35 58.1172 104.799 58.1172C103.959 58.1172 103.275 57.8223 102.748 57.2324C102.225 56.6387 101.963 55.8535 101.963 54.877V54.7363ZM102.666 54.9297C102.666 55.6875 102.861 56.3105 103.252 56.7988C103.646 57.2832 104.162 57.5254 104.799 57.5254C105.432 57.5254 105.943 57.2832 106.334 56.7988C106.729 56.3105 106.926 55.668 106.926 54.8711V54.7363C106.926 54.252 106.836 53.8086 106.656 53.4062C106.477 53.0039 106.225 52.6934 105.9 52.4746C105.576 52.252 105.205 52.1406 104.787 52.1406C104.162 52.1406 103.652 52.3867 103.258 52.8789C102.863 53.3672 102.666 54.0078 102.666 54.8008V54.9297ZM110.957 57.0332L112.885 51.6602H113.605L111.238 58H110.67L108.291 51.6602H109.012L110.957 57.0332ZM118.668 58C118.598 57.8008 118.553 57.5059 118.533 57.1152C118.287 57.4355 117.973 57.6836 117.59 57.8594C117.211 58.0312 116.809 58.1172 116.383 58.1172C115.773 58.1172 115.279 57.9473 114.9 57.6074C114.525 57.2676 114.338 56.8379 114.338 56.3184C114.338 55.7012 114.594 55.2129 115.105 54.8535C115.621 54.4941 116.338 54.3145 117.256 54.3145H118.527V53.5938C118.527 53.1406 118.387 52.7852 118.105 52.5273C117.828 52.2656 117.422 52.1348 116.887 52.1348C116.398 52.1348 115.994 52.2598 115.674 52.5098C115.354 52.7598 115.193 53.0605 115.193 53.4121L114.49 53.4062C114.49 52.9023 114.725 52.4668 115.193 52.0996C115.662 51.7285 116.238 51.543 116.922 51.543C117.629 51.543 118.186 51.7207 118.592 52.0762C119.002 52.4277 119.213 52.9199 119.225 53.5527V56.5527C119.225 57.166 119.289 57.625 119.418 57.9297V58H118.668ZM116.465 57.4961C116.934 57.4961 117.352 57.3828 117.719 57.1562C118.09 56.9297 118.359 56.627 118.527 56.248V54.8535H117.273C116.574 54.8613 116.027 54.9902 115.633 55.2402C115.238 55.4863 115.041 55.8262 115.041 56.2598C115.041 56.6152 115.172 56.9102 115.434 57.1445C115.699 57.3789 116.043 57.4961 116.465 57.4961ZM120.818 54.7715C120.818 53.7871 121.037 53.0039 121.475 52.4219C121.916 51.8359 122.514 51.543 123.268 51.543C124.123 51.543 124.775 51.8809 125.225 52.5566V49H125.922V58H125.266L125.236 57.1562C124.787 57.7969 124.127 58.1172 123.256 58.1172C122.525 58.1172 121.936 57.8242 121.486 57.2383C121.041 56.6484 120.818 55.8535 120.818 54.8535V54.7715ZM121.527 54.8945C121.527 55.7031 121.689 56.3418 122.014 56.8105C122.338 57.2754 122.795 57.5078 123.385 57.5078C124.248 57.5078 124.861 57.127 125.225 56.3652V53.3887C124.861 52.5645 124.252 52.1523 123.396 52.1523C122.807 52.1523 122.348 52.3848 122.02 52.8496C121.691 53.3105 121.527 53.9922 121.527 54.8945ZM127.381 54.7363C127.381 54.127 127.498 53.5781 127.732 53.0898C127.971 52.6016 128.305 52.2227 128.734 51.9531C129.168 51.6797 129.658 51.543 130.205 51.543C131.049 51.543 131.732 51.8398 132.256 52.4336C132.779 53.0234 133.041 53.8066 133.041 54.7832V54.9297C133.041 55.543 132.922 56.0957 132.684 56.5879C132.449 57.0762 132.117 57.4531 131.688 57.7188C131.258 57.9844 130.768 58.1172 130.217 58.1172C129.377 58.1172 128.693 57.8223 128.166 57.2324C127.643 56.6387 127.381 55.8535 127.381 54.877V54.7363ZM128.084 54.9297C128.084 55.6875 128.279 56.3105 128.67 56.7988C129.064 57.2832 129.58 57.5254 130.217 57.5254C130.85 57.5254 131.361 57.2832 131.752 56.7988C132.146 56.3105 132.344 55.668 132.344 54.8711V54.7363C132.344 54.252 132.254 53.8086 132.074 53.4062C131.895 53.0039 131.643 52.6934 131.318 52.4746C130.994 52.252 130.623 52.1406 130.205 52.1406C129.58 52.1406 129.07 52.3867 128.676 52.8789C128.281 53.3672 128.084 54.0078 128.084 54.8008V54.9297Z" fill="black"/>
<path d="M165.729 36.0371V37.6602H167.041V38.2344H165.729V42.459C165.729 42.8105 165.791 43.0723 165.916 43.2441C166.045 43.416 166.258 43.502 166.555 43.502C166.672 43.502 166.861 43.4824 167.123 43.4434L167.152 44.0176C166.969 44.084 166.719 44.1172 166.402 44.1172C165.922 44.1172 165.572 43.9785 165.354 43.7012C165.135 43.4199 165.025 43.0078 165.025 42.4648V38.2344H163.859V37.6602H165.025V36.0371H165.729ZM171.424 38.2578C171.275 38.2305 171.117 38.2168 170.949 38.2168C170.512 38.2168 170.141 38.3398 169.836 38.5859C169.535 38.8281 169.32 39.1816 169.191 39.6465V44H168.494V37.6602H169.18L169.191 38.668C169.562 37.918 170.158 37.543 170.979 37.543C171.174 37.543 171.328 37.5684 171.441 37.6191L171.424 38.2578ZM176.305 44C176.234 43.8008 176.189 43.5059 176.17 43.1152C175.924 43.4355 175.609 43.6836 175.227 43.8594C174.848 44.0312 174.445 44.1172 174.02 44.1172C173.41 44.1172 172.916 43.9473 172.537 43.6074C172.162 43.2676 171.975 42.8379 171.975 42.3184C171.975 41.7012 172.23 41.2129 172.742 40.8535C173.258 40.4941 173.975 40.3145 174.893 40.3145H176.164V39.5938C176.164 39.1406 176.023 38.7852 175.742 38.5273C175.465 38.2656 175.059 38.1348 174.523 38.1348C174.035 38.1348 173.631 38.2598 173.311 38.5098C172.99 38.7598 172.83 39.0605 172.83 39.4121L172.127 39.4062C172.127 38.9023 172.361 38.4668 172.83 38.0996C173.299 37.7285 173.875 37.543 174.559 37.543C175.266 37.543 175.822 37.7207 176.229 38.0762C176.639 38.4277 176.85 38.9199 176.861 39.5527V42.5527C176.861 43.166 176.926 43.625 177.055 43.9297V44H176.305ZM174.102 43.4961C174.57 43.4961 174.988 43.3828 175.355 43.1562C175.727 42.9297 175.996 42.627 176.164 42.248V40.8535H174.91C174.211 40.8613 173.664 40.9902 173.27 41.2402C172.875 41.4863 172.678 41.8262 172.678 42.2598C172.678 42.6152 172.809 42.9102 173.07 43.1445C173.336 43.3789 173.68 43.4961 174.102 43.4961ZM179.404 37.6602L179.428 38.7441C179.666 38.3535 179.963 38.0566 180.318 37.8535C180.674 37.6465 181.066 37.543 181.496 37.543C182.176 37.543 182.682 37.7344 183.014 38.1172C183.346 38.5 183.514 39.0742 183.518 39.8398V44H182.82V39.834C182.816 39.2676 182.695 38.8457 182.457 38.5684C182.223 38.291 181.846 38.1523 181.326 38.1523C180.893 38.1523 180.508 38.2891 180.172 38.5625C179.84 38.832 179.594 39.1973 179.434 39.6582V44H178.736V37.6602H179.404ZM189.131 42.3887C189.131 42.041 188.99 41.7617 188.709 41.5508C188.432 41.3398 188.012 41.1758 187.449 41.0586C186.887 40.9375 186.449 40.8008 186.137 40.6484C185.828 40.4922 185.598 40.3027 185.445 40.0801C185.297 39.8574 185.223 39.5879 185.223 39.2715C185.223 38.7715 185.432 38.3594 185.85 38.0352C186.268 37.707 186.803 37.543 187.455 37.543C188.162 37.543 188.729 37.7188 189.154 38.0703C189.584 38.418 189.799 38.873 189.799 39.4355H189.096C189.096 39.0645 188.939 38.7559 188.627 38.5098C188.318 38.2637 187.928 38.1406 187.455 38.1406C186.994 38.1406 186.623 38.2441 186.342 38.4512C186.064 38.6543 185.926 38.9199 185.926 39.248C185.926 39.5645 186.041 39.8105 186.271 39.9863C186.506 40.1582 186.93 40.3164 187.543 40.4609C188.16 40.6055 188.621 40.7598 188.926 40.9238C189.234 41.0879 189.463 41.2852 189.611 41.5156C189.76 41.7461 189.834 42.0254 189.834 42.3535C189.834 42.8887 189.617 43.3164 189.184 43.6367C188.754 43.957 188.191 44.1172 187.496 44.1172C186.758 44.1172 186.158 43.9395 185.697 43.584C185.24 43.2246 185.012 42.7715 185.012 42.2246H185.715C185.742 42.6348 185.914 42.9551 186.23 43.1855C186.551 43.4121 186.973 43.5254 187.496 43.5254C187.984 43.5254 188.379 43.418 188.68 43.2031C188.98 42.9883 189.131 42.7168 189.131 42.3887ZM196.514 40.8945C196.514 41.8828 196.295 42.668 195.857 43.25C195.42 43.8281 194.834 44.1172 194.1 44.1172C193.232 44.1172 192.568 43.8125 192.107 43.2031V46.4375H191.41V37.6602H192.061L192.096 38.5566C192.553 37.8809 193.215 37.543 194.082 37.543C194.84 37.543 195.434 37.8301 195.863 38.4043C196.297 38.9785 196.514 39.7754 196.514 40.7949V40.8945ZM195.811 40.7715C195.811 39.9629 195.645 39.3242 195.312 38.8555C194.98 38.3867 194.518 38.1523 193.924 38.1523C193.494 38.1523 193.125 38.2559 192.816 38.4629C192.508 38.6699 192.271 38.9707 192.107 39.3652V42.4062C192.275 42.7695 192.516 43.0469 192.828 43.2383C193.141 43.4297 193.51 43.5254 193.936 43.5254C194.525 43.5254 194.984 43.291 195.312 42.8223C195.645 42.3496 195.811 41.666 195.811 40.7715ZM197.686 40.7363C197.686 40.127 197.803 39.5781 198.037 39.0898C198.275 38.6016 198.609 38.2227 199.039 37.9531C199.473 37.6797 199.963 37.543 200.51 37.543C201.354 37.543 202.037 37.8398 202.561 38.4336C203.084 39.0234 203.346 39.8066 203.346 40.7832V40.9297C203.346 41.543 203.227 42.0957 202.988 42.5879C202.754 43.0762 202.422 43.4531 201.992 43.7188C201.562 43.9844 201.072 44.1172 200.521 44.1172C199.682 44.1172 198.998 43.8223 198.471 43.2324C197.947 42.6387 197.686 41.8535 197.686 40.877V40.7363ZM198.389 40.9297C198.389 41.6875 198.584 42.3105 198.975 42.7988C199.369 43.2832 199.885 43.5254 200.521 43.5254C201.154 43.5254 201.666 43.2832 202.057 42.7988C202.451 42.3105 202.648 41.668 202.648 40.8711V40.7363C202.648 40.252 202.559 39.8086 202.379 39.4062C202.199 39.0039 201.947 38.6934 201.623 38.4746C201.299 38.252 200.928 38.1406 200.51 38.1406C199.885 38.1406 199.375 38.3867 198.98 38.8789C198.586 39.3672 198.389 40.0078 198.389 40.8008V40.9297ZM207.729 38.2578C207.58 38.2305 207.422 38.2168 207.254 38.2168C206.816 38.2168 206.445 38.3398 206.141 38.5859C205.84 38.8281 205.625 39.1816 205.496 39.6465V44H204.799V37.6602H205.484L205.496 38.668C205.867 37.918 206.463 37.543 207.283 37.543C207.479 37.543 207.633 37.5684 207.746 37.6191L207.729 38.2578ZM210.225 36.0371V37.6602H211.537V38.2344H210.225V42.459C210.225 42.8105 210.287 43.0723 210.412 43.2441C210.541 43.416 210.754 43.502 211.051 43.502C211.168 43.502 211.357 43.4824 211.619 43.4434L211.648 44.0176C211.465 44.084 211.215 44.1172 210.898 44.1172C210.418 44.1172 210.068 43.9785 209.85 43.7012C209.631 43.4199 209.521 43.0078 209.521 42.4648V38.2344H208.355V37.6602H209.521V36.0371H210.225ZM215.445 44.1172C214.906 44.1172 214.418 43.9844 213.98 43.7188C213.547 43.4531 213.209 43.084 212.967 42.6113C212.725 42.1348 212.604 41.6016 212.604 41.0117V40.7598C212.604 40.1504 212.721 39.6016 212.955 39.1133C213.193 38.625 213.523 38.2422 213.945 37.9648C214.367 37.6836 214.824 37.543 215.316 37.543C216.086 37.543 216.695 37.8066 217.145 38.334C217.598 38.8574 217.824 39.5742 217.824 40.4844V40.877H213.301V41.0117C213.301 41.7305 213.506 42.3301 213.916 42.8105C214.33 43.2871 214.85 43.5254 215.475 43.5254C215.85 43.5254 216.18 43.457 216.465 43.3203C216.754 43.1836 217.016 42.9648 217.25 42.6641L217.689 42.998C217.174 43.7441 216.426 44.1172 215.445 44.1172ZM215.316 38.1406C214.789 38.1406 214.344 38.334 213.98 38.7207C213.621 39.1074 213.402 39.627 213.324 40.2793H217.127V40.2031C217.107 39.5938 216.934 39.0977 216.605 38.7148C216.277 38.332 215.848 38.1406 215.316 38.1406Z" fill="black"/>
<path d="M253.254 44.1172C252.715 44.1172 252.227 43.9844 251.789 43.7188C251.355 43.4531 251.018 43.084 250.775 42.6113C250.533 42.1348 250.412 41.6016 250.412 41.0117V40.7598C250.412 40.1504 250.529 39.6016 250.764 39.1133C251.002 38.625 251.332 38.2422 251.754 37.9648C252.176 37.6836 252.633 37.543 253.125 37.543C253.895 37.543 254.504 37.8066 254.953 38.334C255.406 38.8574 255.633 39.5742 255.633 40.4844V40.877H251.109V41.0117C251.109 41.7305 251.314 42.3301 251.725 42.8105C252.139 43.2871 252.658 43.5254 253.283 43.5254C253.658 43.5254 253.988 43.457 254.273 43.3203C254.562 43.1836 254.824 42.9648 255.059 42.6641L255.498 42.998C254.982 43.7441 254.234 44.1172 253.254 44.1172ZM253.125 38.1406C252.598 38.1406 252.152 38.334 251.789 38.7207C251.43 39.1074 251.211 39.627 251.133 40.2793H254.936V40.2031C254.916 39.5938 254.742 39.0977 254.414 38.7148C254.086 38.332 253.656 38.1406 253.125 38.1406ZM257.666 37.6602L257.689 38.7441C257.928 38.3535 258.225 38.0566 258.58 37.8535C258.936 37.6465 259.328 37.543 259.758 37.543C260.438 37.543 260.943 37.7344 261.275 38.1172C261.607 38.5 261.775 39.0742 261.779 39.8398V44H261.082V39.834C261.078 39.2676 260.957 38.8457 260.719 38.5684C260.484 38.291 260.107 38.1523 259.588 38.1523C259.154 38.1523 258.77 38.2891 258.434 38.5625C258.102 38.832 257.855 39.1973 257.695 39.6582V44H256.998V37.6602H257.666ZM264.686 36.0371V37.6602H265.998V38.2344H264.686V42.459C264.686 42.8105 264.748 43.0723 264.873 43.2441C265.002 43.416 265.215 43.502 265.512 43.502C265.629 43.502 265.818 43.4824 266.08 43.4434L266.109 44.0176C265.926 44.084 265.676 44.1172 265.359 44.1172C264.879 44.1172 264.529 43.9785 264.311 43.7012C264.092 43.4199 263.982 43.0078 263.982 42.4648V38.2344H262.816V37.6602H263.982V36.0371H264.686ZM270.381 38.2578C270.232 38.2305 270.074 38.2168 269.906 38.2168C269.469 38.2168 269.098 38.3398 268.793 38.5859C268.492 38.8281 268.277 39.1816 268.148 39.6465V44H267.451V37.6602H268.137L268.148 38.668C268.52 37.918 269.115 37.543 269.936 37.543C270.131 37.543 270.285 37.5684 270.398 37.6191L270.381 38.2578ZM273.832 44.1172C273.293 44.1172 272.805 43.9844 272.367 43.7188C271.934 43.4531 271.596 43.084 271.354 42.6113C271.111 42.1348 270.99 41.6016 270.99 41.0117V40.7598C270.99 40.1504 271.107 39.6016 271.342 39.1133C271.58 38.625 271.91 38.2422 272.332 37.9648C272.754 37.6836 273.211 37.543 273.703 37.543C274.473 37.543 275.082 37.8066 275.531 38.334C275.984 38.8574 276.211 39.5742 276.211 40.4844V40.877H271.688V41.0117C271.688 41.7305 271.893 42.3301 272.303 42.8105C272.717 43.2871 273.236 43.5254 273.861 43.5254C274.236 43.5254 274.566 43.457 274.852 43.3203C275.141 43.1836 275.402 42.9648 275.637 42.6641L276.076 42.998C275.561 43.7441 274.812 44.1172 273.832 44.1172ZM273.703 38.1406C273.176 38.1406 272.73 38.334 272.367 38.7207C272.008 39.1074 271.789 39.627 271.711 40.2793H275.514V40.2031C275.494 39.5938 275.32 39.0977 274.992 38.7148C274.664 38.332 274.234 38.1406 273.703 38.1406ZM277.295 40.7715C277.295 39.7793 277.514 38.9941 277.951 38.416C278.393 37.834 278.99 37.543 279.744 37.543C280.607 37.543 281.264 37.8867 281.713 38.5742L281.748 37.6602H282.404V43.8711C282.404 44.6875 282.176 45.334 281.719 45.8105C281.262 46.2871 280.643 46.5254 279.861 46.5254C279.42 46.5254 278.998 46.4258 278.596 46.2266C278.197 46.0312 277.883 45.7695 277.652 45.4414L278.045 45.0195C278.541 45.6289 279.131 45.9336 279.814 45.9336C280.4 45.9336 280.857 45.7598 281.186 45.4121C281.514 45.0684 281.684 44.5898 281.695 43.9766V43.1797C281.246 43.8047 280.592 44.1172 279.732 44.1172C278.998 44.1172 278.408 43.8242 277.963 43.2383C277.518 42.6523 277.295 41.8613 277.295 40.8652V40.7715ZM278.004 40.8945C278.004 41.7031 278.166 42.3418 278.49 42.8105C278.814 43.2754 279.271 43.5078 279.861 43.5078C280.725 43.5078 281.336 43.1211 281.695 42.3477V39.4004C281.531 38.9941 281.295 38.6855 280.986 38.4746C280.678 38.2598 280.307 38.1523 279.873 38.1523C279.283 38.1523 278.824 38.3848 278.496 38.8496C278.168 39.3105 278.004 39.9922 278.004 40.8945ZM288.311 43.1973C287.889 43.8105 287.215 44.1172 286.289 44.1172C285.613 44.1172 285.1 43.9219 284.748 43.5312C284.396 43.1367 284.217 42.5547 284.209 41.7852V37.6602H284.906V41.6973C284.906 42.9043 285.395 43.5078 286.371 43.5078C287.387 43.5078 288.029 43.0879 288.299 42.248V37.6602H289.002V44H288.322L288.311 43.1973ZM293.285 44.1172C292.746 44.1172 292.258 43.9844 291.82 43.7188C291.387 43.4531 291.049 43.084 290.807 42.6113C290.564 42.1348 290.443 41.6016 290.443 41.0117V40.7598C290.443 40.1504 290.561 39.6016 290.795 39.1133C291.033 38.625 291.363 38.2422 291.785 37.9648C292.207 37.6836 292.664 37.543 293.156 37.543C293.926 37.543 294.535 37.8066 294.984 38.334C295.438 38.8574 295.664 39.5742 295.664 40.4844V40.877H291.141V41.0117C291.141 41.7305 291.346 42.3301 291.756 42.8105C292.17 43.2871 292.689 43.5254 293.314 43.5254C293.689 43.5254 294.02 43.457 294.305 43.3203C294.594 43.1836 294.855 42.9648 295.09 42.6641L295.529 42.998C295.014 43.7441 294.266 44.1172 293.285 44.1172ZM293.156 38.1406C292.629 38.1406 292.184 38.334 291.82 38.7207C291.461 39.1074 291.242 39.627 291.164 40.2793H294.967V40.2031C294.947 39.5938 294.773 39.0977 294.445 38.7148C294.117 38.332 293.688 38.1406 293.156 38.1406Z" fill="black"/>
<rect x="27" y="6" width="83" height="9" rx="4.5" fill="#ACDD4F"/>
<rect x="104" y="6" width="172" height="9" rx="4.5" fill="#C4C4C4"/>
<circle cx="27" cy="11" r="11" fill="#ACDD4F"/>
<circle cx="109" cy="11" r="11" fill="#C4C4C4"/>
<circle cx="191" cy="11" r="11" fill="#C4C4C4"/>
<circle cx="273" cy="11" r="11" fill="#C4C4C4"/>
</svg>
