<svg width="22" height="30" viewBox="0 0 22 30" fill="none" xmlns="http://www.w3.org/2000/svg">
<path d="M18.2778 0.444458H12.4445V6.36383C14.5868 6.60008 16.573 7.35112 18.2778 8.49154V0.444458ZM9.52783 0.444458H3.6945V8.49154C5.39929 7.35112 7.38554 6.60008 9.52783 6.36383V0.444458ZM10.9862 29.6111C16.6241 29.6111 21.1945 25.0407 21.1945 19.4028C21.1945 13.7649 16.6241 9.19446 10.9862 9.19446C5.34825 9.19446 0.777832 13.7649 0.777832 19.4028C0.777832 25.0407 5.34825 29.6111 10.9862 29.6111ZM9.19971 17.1876L10.9862 13.5695L12.7726 17.1876L16.7655 17.7665L13.8766 20.584L14.5591 24.5609L10.9862 22.684L7.41471 24.5609L8.09721 20.584L5.20825 17.7665L9.19971 17.1876Z" fill="#0E0E0D"/>
<path d="M18.2778 0.444458H12.4445V6.36383C14.5868 6.60008 16.573 7.35112 18.2778 8.49154V0.444458ZM9.52783 0.444458H3.6945V8.49154C5.39929 7.35112 7.38554 6.60008 9.52783 6.36383V0.444458ZM10.9862 29.6111C16.6241 29.6111 21.1945 25.0407 21.1945 19.4028C21.1945 13.7649 16.6241 9.19446 10.9862 9.19446C5.34825 9.19446 0.777832 13.7649 0.777832 19.4028C0.777832 25.0407 5.34825 29.6111 10.9862 29.6111ZM9.19971 17.1876L10.9862 13.5695L12.7726 17.1876L16.7655 17.7665L13.8766 20.584L14.5591 24.5609L10.9862 22.684L7.41471 24.5609L8.09721 20.584L5.20825 17.7665L9.19971 17.1876Z" fill="url(#paint0_linear)" fill-opacity="0.5"/>
<defs>
<linearGradient id="paint0_linear" x1="10.9862" y1="0.444458" x2="10.9862" y2="29.6111" gradientUnits="userSpaceOnUse">
<stop stop-color="white"/>
<stop offset="1" stop-color="white" stop-opacity="0"/>
</linearGradient>
</defs>
</svg>
